<mxfile host="app.diagrams.net" modified="2023-06-21T05:24:57.836Z" agent="Mozilla/5.0 (Windows NT 10.0; Win64; x64) AppleWebKit/537.36 (KHTML, like Gecko) Chrome/114.0.0.0 Safari/537.36" etag="Qdc7d23N50jGo3GWoWVv" version="21.5.0" type="device">
  <diagram id="suzXVNND7A95OaqXfEXm" name="Page-2">
    <mxGraphModel dx="1050" dy="619" grid="1" gridSize="10" guides="1" tooltips="1" connect="1" arrows="1" fold="1" page="1" pageScale="1" pageWidth="850" pageHeight="1100" math="0" shadow="0">
      <root>
        <mxCell id="0" />
        <mxCell id="1" parent="0" />
        <mxCell id="k4QhSJhcpzNyjnFm29Ks-4" value="ward_number" style="ellipse;whiteSpace=wrap;html=1;align=center;fontStyle=4;" vertex="1" parent="1">
          <mxGeometry x="50" y="80" width="100" height="40" as="geometry" />
        </mxCell>
        <mxCell id="k4QhSJhcpzNyjnFm29Ks-5" value="name" style="ellipse;whiteSpace=wrap;html=1;align=center;fontStyle=4;" vertex="1" parent="1">
          <mxGeometry x="10" y="180" width="100" height="40" as="geometry" />
        </mxCell>
        <mxCell id="k4QhSJhcpzNyjnFm29Ks-6" value="number_of_patients" style="ellipse;whiteSpace=wrap;html=1;align=center;fontStyle=4;" vertex="1" parent="1">
          <mxGeometry x="150" y="50" width="120" height="40" as="geometry" />
        </mxCell>
        <mxCell id="k4QhSJhcpzNyjnFm29Ks-10" value="" style="endArrow=none;html=1;rounded=0;entryX=0.5;entryY=1;entryDx=0;entryDy=0;exitX=0;exitY=0;exitDx=0;exitDy=0;" edge="1" parent="1" source="k4QhSJhcpzNyjnFm29Ks-31" target="k4QhSJhcpzNyjnFm29Ks-4">
          <mxGeometry relative="1" as="geometry">
            <mxPoint x="150" y="170" as="sourcePoint" />
            <mxPoint x="500" y="320" as="targetPoint" />
          </mxGeometry>
        </mxCell>
        <mxCell id="k4QhSJhcpzNyjnFm29Ks-11" value="" style="endArrow=none;html=1;rounded=0;exitX=0.443;exitY=1.055;exitDx=0;exitDy=0;exitPerimeter=0;entryX=0.5;entryY=0;entryDx=0;entryDy=0;" edge="1" parent="1" source="k4QhSJhcpzNyjnFm29Ks-6" target="k4QhSJhcpzNyjnFm29Ks-31">
          <mxGeometry relative="1" as="geometry">
            <mxPoint x="340" y="320" as="sourcePoint" />
            <mxPoint x="210" y="170" as="targetPoint" />
          </mxGeometry>
        </mxCell>
        <mxCell id="k4QhSJhcpzNyjnFm29Ks-12" value="" style="line;strokeWidth=1;rotatable=0;dashed=0;labelPosition=right;align=left;verticalAlign=middle;spacingTop=0;spacingLeft=6;points=[];portConstraint=eastwest;" vertex="1" parent="1">
          <mxGeometry x="110" y="195" width="50" height="10" as="geometry" />
        </mxCell>
        <mxCell id="k4QhSJhcpzNyjnFm29Ks-13" value="has" style="shape=rhombus;perimeter=rhombusPerimeter;whiteSpace=wrap;html=1;align=center;" vertex="1" parent="1">
          <mxGeometry x="140" y="310" width="120" height="60" as="geometry" />
        </mxCell>
        <mxCell id="k4QhSJhcpzNyjnFm29Ks-14" value="" style="endArrow=none;html=1;rounded=0;exitX=0.5;exitY=0;exitDx=0;exitDy=0;entryX=0.404;entryY=1.035;entryDx=0;entryDy=0;entryPerimeter=0;" edge="1" parent="1" source="k4QhSJhcpzNyjnFm29Ks-13" target="k4QhSJhcpzNyjnFm29Ks-31">
          <mxGeometry relative="1" as="geometry">
            <mxPoint x="340" y="320" as="sourcePoint" />
            <mxPoint x="201.24" y="236.60000000000002" as="targetPoint" />
            <Array as="points">
              <mxPoint x="201" y="270" />
            </Array>
          </mxGeometry>
        </mxCell>
        <mxCell id="k4QhSJhcpzNyjnFm29Ks-15" value="" style="endArrow=none;html=1;rounded=0;entryX=0.5;entryY=1;entryDx=0;entryDy=0;exitX=0.4;exitY=0;exitDx=0;exitDy=0;exitPerimeter=0;" edge="1" parent="1" source="k4QhSJhcpzNyjnFm29Ks-32" target="k4QhSJhcpzNyjnFm29Ks-13">
          <mxGeometry relative="1" as="geometry">
            <mxPoint x="200" y="430" as="sourcePoint" />
            <mxPoint x="280" y="390" as="targetPoint" />
          </mxGeometry>
        </mxCell>
        <mxCell id="k4QhSJhcpzNyjnFm29Ks-16" value="hospital_id" style="ellipse;whiteSpace=wrap;html=1;align=center;fontStyle=4;" vertex="1" parent="1">
          <mxGeometry x="10" y="380" width="100" height="40" as="geometry" />
        </mxCell>
        <mxCell id="k4QhSJhcpzNyjnFm29Ks-18" value="name" style="ellipse;whiteSpace=wrap;html=1;align=center;" vertex="1" parent="1">
          <mxGeometry x="10" y="510" width="100" height="40" as="geometry" />
        </mxCell>
        <mxCell id="k4QhSJhcpzNyjnFm29Ks-19" value="specialization" style="ellipse;whiteSpace=wrap;html=1;align=center;" vertex="1" parent="1">
          <mxGeometry x="90" y="570" width="100" height="40" as="geometry" />
        </mxCell>
        <mxCell id="k4QhSJhcpzNyjnFm29Ks-21" value="telephone_number" style="ellipse;shape=doubleEllipse;margin=3;whiteSpace=wrap;html=1;align=center;" vertex="1" parent="1">
          <mxGeometry x="320" y="570" width="120" height="40" as="geometry" />
        </mxCell>
        <mxCell id="k4QhSJhcpzNyjnFm29Ks-22" value="address" style="ellipse;shape=doubleEllipse;margin=3;whiteSpace=wrap;html=1;align=center;" vertex="1" parent="1">
          <mxGeometry x="200" y="580" width="100" height="40" as="geometry" />
        </mxCell>
        <mxCell id="k4QhSJhcpzNyjnFm29Ks-23" value="" style="endArrow=none;html=1;rounded=0;exitX=0;exitY=0;exitDx=0;exitDy=0;entryX=1;entryY=0.5;entryDx=0;entryDy=0;" edge="1" parent="1" source="k4QhSJhcpzNyjnFm29Ks-32" target="k4QhSJhcpzNyjnFm29Ks-16">
          <mxGeometry relative="1" as="geometry">
            <mxPoint x="140" y="430" as="sourcePoint" />
            <mxPoint x="500" y="320" as="targetPoint" />
          </mxGeometry>
        </mxCell>
        <mxCell id="k4QhSJhcpzNyjnFm29Ks-24" value="" style="endArrow=none;html=1;rounded=0;exitX=0;exitY=1;exitDx=0;exitDy=0;entryX=1;entryY=0;entryDx=0;entryDy=0;" edge="1" parent="1" source="k4QhSJhcpzNyjnFm29Ks-32" target="k4QhSJhcpzNyjnFm29Ks-18">
          <mxGeometry relative="1" as="geometry">
            <mxPoint x="140" y="490" as="sourcePoint" />
            <mxPoint x="500" y="320" as="targetPoint" />
          </mxGeometry>
        </mxCell>
        <mxCell id="k4QhSJhcpzNyjnFm29Ks-25" value="" style="endArrow=none;html=1;rounded=0;exitX=0.388;exitY=1.095;exitDx=0;exitDy=0;entryX=0.5;entryY=0;entryDx=0;entryDy=0;exitPerimeter=0;" edge="1" parent="1" source="k4QhSJhcpzNyjnFm29Ks-32" target="k4QhSJhcpzNyjnFm29Ks-19">
          <mxGeometry relative="1" as="geometry">
            <mxPoint x="200" y="490" as="sourcePoint" />
            <mxPoint x="500" y="320" as="targetPoint" />
          </mxGeometry>
        </mxCell>
        <mxCell id="k4QhSJhcpzNyjnFm29Ks-26" value="" style="endArrow=none;html=1;rounded=0;exitX=1;exitY=1;exitDx=0;exitDy=0;entryX=0.5;entryY=0;entryDx=0;entryDy=0;" edge="1" parent="1" source="k4QhSJhcpzNyjnFm29Ks-32" target="k4QhSJhcpzNyjnFm29Ks-21">
          <mxGeometry relative="1" as="geometry">
            <mxPoint x="260" y="490" as="sourcePoint" />
            <mxPoint x="500" y="320" as="targetPoint" />
          </mxGeometry>
        </mxCell>
        <mxCell id="k4QhSJhcpzNyjnFm29Ks-29" value="" style="endArrow=none;html=1;rounded=0;exitX=0.676;exitY=1.095;exitDx=0;exitDy=0;entryX=0.5;entryY=0;entryDx=0;entryDy=0;exitPerimeter=0;" edge="1" parent="1" source="k4QhSJhcpzNyjnFm29Ks-32" target="k4QhSJhcpzNyjnFm29Ks-22">
          <mxGeometry relative="1" as="geometry">
            <mxPoint x="260" y="430" as="sourcePoint" />
            <mxPoint x="500" y="320" as="targetPoint" />
          </mxGeometry>
        </mxCell>
        <mxCell id="k4QhSJhcpzNyjnFm29Ks-30" value="treatment" style="whiteSpace=wrap;html=1;align=center;" vertex="1" parent="1">
          <mxGeometry x="620" y="450" width="100" height="40" as="geometry" />
        </mxCell>
        <mxCell id="k4QhSJhcpzNyjnFm29Ks-31" value="Entity" style="whiteSpace=wrap;html=1;align=center;" vertex="1" parent="1">
          <mxGeometry x="160" y="180" width="100" height="40" as="geometry" />
        </mxCell>
        <mxCell id="k4QhSJhcpzNyjnFm29Ks-32" value="Entity" style="whiteSpace=wrap;html=1;align=center;" vertex="1" parent="1">
          <mxGeometry x="160" y="440" width="100" height="40" as="geometry" />
        </mxCell>
        <mxCell id="k4QhSJhcpzNyjnFm29Ks-33" value="treatment_number" style="ellipse;whiteSpace=wrap;html=1;align=center;fontStyle=4;" vertex="1" parent="1">
          <mxGeometry x="820" y="450" width="120" height="40" as="geometry" />
        </mxCell>
        <mxCell id="k4QhSJhcpzNyjnFm29Ks-34" value="" style="line;strokeWidth=1;rotatable=0;dashed=0;labelPosition=right;align=left;verticalAlign=middle;spacingTop=0;spacingLeft=6;points=[];portConstraint=eastwest;" vertex="1" parent="1">
          <mxGeometry x="720" y="465" width="100" height="10" as="geometry" />
        </mxCell>
        <mxCell id="k4QhSJhcpzNyjnFm29Ks-35" value="description" style="ellipse;whiteSpace=wrap;html=1;align=center;" vertex="1" parent="1">
          <mxGeometry x="620" y="570" width="100" height="40" as="geometry" />
        </mxCell>
        <mxCell id="k4QhSJhcpzNyjnFm29Ks-38" value="" style="endArrow=none;html=1;rounded=0;entryX=0.5;entryY=1;entryDx=0;entryDy=0;exitX=0.5;exitY=0;exitDx=0;exitDy=0;" edge="1" parent="1" source="k4QhSJhcpzNyjnFm29Ks-35" target="k4QhSJhcpzNyjnFm29Ks-30">
          <mxGeometry relative="1" as="geometry">
            <mxPoint x="340" y="320" as="sourcePoint" />
            <mxPoint x="500" y="320" as="targetPoint" />
          </mxGeometry>
        </mxCell>
        <mxCell id="k4QhSJhcpzNyjnFm29Ks-40" value="assign" style="shape=rhombus;perimeter=rhombusPerimeter;whiteSpace=wrap;html=1;align=center;" vertex="1" parent="1">
          <mxGeometry x="360" y="320" width="120" height="60" as="geometry" />
        </mxCell>
        <mxCell id="k4QhSJhcpzNyjnFm29Ks-41" value="" style="endArrow=none;html=1;rounded=0;entryX=0.5;entryY=0;entryDx=0;entryDy=0;exitX=0.5;exitY=1;exitDx=0;exitDy=0;" edge="1" parent="1" source="k4QhSJhcpzNyjnFm29Ks-42" target="k4QhSJhcpzNyjnFm29Ks-30">
          <mxGeometry relative="1" as="geometry">
            <mxPoint x="680" y="360" as="sourcePoint" />
            <mxPoint x="500" y="320" as="targetPoint" />
          </mxGeometry>
        </mxCell>
        <mxCell id="k4QhSJhcpzNyjnFm29Ks-42" value="obtain" style="shape=rhombus;perimeter=rhombusPerimeter;whiteSpace=wrap;html=1;align=center;" vertex="1" parent="1">
          <mxGeometry x="610" y="300" width="120" height="60" as="geometry" />
        </mxCell>
        <mxCell id="k4QhSJhcpzNyjnFm29Ks-43" value="patient" style="whiteSpace=wrap;html=1;align=center;" vertex="1" parent="1">
          <mxGeometry x="620" y="180" width="100" height="40" as="geometry" />
        </mxCell>
        <mxCell id="k4QhSJhcpzNyjnFm29Ks-47" value="" style="endArrow=none;html=1;rounded=0;entryX=0.5;entryY=1;entryDx=0;entryDy=0;exitX=0.5;exitY=0;exitDx=0;exitDy=0;" edge="1" parent="1" source="k4QhSJhcpzNyjnFm29Ks-42" target="k4QhSJhcpzNyjnFm29Ks-43">
          <mxGeometry relative="1" as="geometry">
            <mxPoint x="340" y="320" as="sourcePoint" />
            <mxPoint x="500" y="320" as="targetPoint" />
          </mxGeometry>
        </mxCell>
        <mxCell id="k4QhSJhcpzNyjnFm29Ks-48" value="name" style="ellipse;whiteSpace=wrap;html=1;align=center;" vertex="1" parent="1">
          <mxGeometry x="700" y="60" width="100" height="40" as="geometry" />
        </mxCell>
        <mxCell id="k4QhSJhcpzNyjnFm29Ks-49" value="admission_number" style="ellipse;whiteSpace=wrap;html=1;align=center;fontStyle=4;" vertex="1" parent="1">
          <mxGeometry x="560" y="50" width="120" height="40" as="geometry" />
        </mxCell>
        <mxCell id="k4QhSJhcpzNyjnFm29Ks-50" value="address" style="ellipse;shape=doubleEllipse;margin=3;whiteSpace=wrap;html=1;align=center;" vertex="1" parent="1">
          <mxGeometry x="800" y="100" width="100" height="40" as="geometry" />
        </mxCell>
        <mxCell id="k4QhSJhcpzNyjnFm29Ks-52" value="telephone_number" style="ellipse;shape=doubleEllipse;margin=3;whiteSpace=wrap;html=1;align=center;" vertex="1" parent="1">
          <mxGeometry x="810" y="170" width="120" height="40" as="geometry" />
        </mxCell>
        <mxCell id="k4QhSJhcpzNyjnFm29Ks-53" value="" style="endArrow=none;html=1;rounded=0;entryX=0.34;entryY=-0.065;entryDx=0;entryDy=0;exitX=0.5;exitY=1;exitDx=0;exitDy=0;entryPerimeter=0;" edge="1" parent="1" source="k4QhSJhcpzNyjnFm29Ks-49" target="k4QhSJhcpzNyjnFm29Ks-43">
          <mxGeometry relative="1" as="geometry">
            <mxPoint x="340" y="320" as="sourcePoint" />
            <mxPoint x="500" y="320" as="targetPoint" />
          </mxGeometry>
        </mxCell>
        <mxCell id="k4QhSJhcpzNyjnFm29Ks-54" value="" style="endArrow=none;html=1;rounded=0;entryX=1;entryY=0;entryDx=0;entryDy=0;exitX=0.5;exitY=1;exitDx=0;exitDy=0;" edge="1" parent="1" source="k4QhSJhcpzNyjnFm29Ks-48" target="k4QhSJhcpzNyjnFm29Ks-43">
          <mxGeometry relative="1" as="geometry">
            <mxPoint x="340" y="320" as="sourcePoint" />
            <mxPoint x="500" y="320" as="targetPoint" />
          </mxGeometry>
        </mxCell>
        <mxCell id="k4QhSJhcpzNyjnFm29Ks-55" value="" style="endArrow=none;html=1;rounded=0;entryX=1;entryY=0.5;entryDx=0;entryDy=0;exitX=-0.016;exitY=0.765;exitDx=0;exitDy=0;exitPerimeter=0;" edge="1" parent="1" source="k4QhSJhcpzNyjnFm29Ks-50" target="k4QhSJhcpzNyjnFm29Ks-43">
          <mxGeometry relative="1" as="geometry">
            <mxPoint x="340" y="320" as="sourcePoint" />
            <mxPoint x="500" y="320" as="targetPoint" />
          </mxGeometry>
        </mxCell>
        <mxCell id="k4QhSJhcpzNyjnFm29Ks-56" value="" style="endArrow=none;html=1;rounded=0;exitX=1;exitY=1;exitDx=0;exitDy=0;entryX=0;entryY=0.5;entryDx=0;entryDy=0;" edge="1" parent="1" source="k4QhSJhcpzNyjnFm29Ks-43" target="k4QhSJhcpzNyjnFm29Ks-52">
          <mxGeometry relative="1" as="geometry">
            <mxPoint x="340" y="320" as="sourcePoint" />
            <mxPoint x="500" y="320" as="targetPoint" />
          </mxGeometry>
        </mxCell>
        <mxCell id="k4QhSJhcpzNyjnFm29Ks-57" value="" style="endArrow=none;html=1;rounded=0;entryX=0;entryY=1;entryDx=0;entryDy=0;exitX=1;exitY=0.5;exitDx=0;exitDy=0;" edge="1" parent="1" source="k4QhSJhcpzNyjnFm29Ks-40" target="k4QhSJhcpzNyjnFm29Ks-43">
          <mxGeometry relative="1" as="geometry">
            <mxPoint x="340" y="320" as="sourcePoint" />
            <mxPoint x="500" y="320" as="targetPoint" />
            <Array as="points">
              <mxPoint x="550" y="350" />
              <mxPoint x="560" y="220" />
            </Array>
          </mxGeometry>
        </mxCell>
        <mxCell id="k4QhSJhcpzNyjnFm29Ks-58" value="host" style="shape=rhombus;perimeter=rhombusPerimeter;whiteSpace=wrap;html=1;align=center;" vertex="1" parent="1">
          <mxGeometry x="350" y="170" width="120" height="60" as="geometry" />
        </mxCell>
        <mxCell id="k4QhSJhcpzNyjnFm29Ks-59" value="" style="endArrow=none;html=1;rounded=0;exitX=1;exitY=0.5;exitDx=0;exitDy=0;entryX=0;entryY=0.5;entryDx=0;entryDy=0;" edge="1" parent="1" source="k4QhSJhcpzNyjnFm29Ks-31" target="k4QhSJhcpzNyjnFm29Ks-58">
          <mxGeometry relative="1" as="geometry">
            <mxPoint x="340" y="320" as="sourcePoint" />
            <mxPoint x="500" y="320" as="targetPoint" />
          </mxGeometry>
        </mxCell>
        <mxCell id="k4QhSJhcpzNyjnFm29Ks-60" value="" style="endArrow=none;html=1;rounded=0;exitX=1;exitY=0.5;exitDx=0;exitDy=0;entryX=0;entryY=0.5;entryDx=0;entryDy=0;" edge="1" parent="1" source="k4QhSJhcpzNyjnFm29Ks-58" target="k4QhSJhcpzNyjnFm29Ks-43">
          <mxGeometry relative="1" as="geometry">
            <mxPoint x="340" y="320" as="sourcePoint" />
            <mxPoint x="500" y="320" as="targetPoint" />
          </mxGeometry>
        </mxCell>
        <mxCell id="k4QhSJhcpzNyjnFm29Ks-61" value="date_of_admit" style="ellipse;whiteSpace=wrap;html=1;align=center;" vertex="1" parent="1">
          <mxGeometry x="360" y="80" width="100" height="40" as="geometry" />
        </mxCell>
        <mxCell id="k4QhSJhcpzNyjnFm29Ks-62" value="" style="endArrow=none;html=1;rounded=0;exitX=0.5;exitY=1;exitDx=0;exitDy=0;entryX=0.5;entryY=0;entryDx=0;entryDy=0;" edge="1" parent="1" source="k4QhSJhcpzNyjnFm29Ks-61" target="k4QhSJhcpzNyjnFm29Ks-58">
          <mxGeometry relative="1" as="geometry">
            <mxPoint x="340" y="320" as="sourcePoint" />
            <mxPoint x="500" y="320" as="targetPoint" />
          </mxGeometry>
        </mxCell>
        <mxCell id="k4QhSJhcpzNyjnFm29Ks-63" value="dosage" style="ellipse;whiteSpace=wrap;html=1;align=center;" vertex="1" parent="1">
          <mxGeometry x="800" y="310" width="100" height="40" as="geometry" />
        </mxCell>
        <mxCell id="k4QhSJhcpzNyjnFm29Ks-64" value="" style="endArrow=none;html=1;rounded=0;entryX=0;entryY=0.5;entryDx=0;entryDy=0;" edge="1" parent="1" target="k4QhSJhcpzNyjnFm29Ks-63">
          <mxGeometry relative="1" as="geometry">
            <mxPoint x="730" y="330" as="sourcePoint" />
            <mxPoint x="500" y="320" as="targetPoint" />
          </mxGeometry>
        </mxCell>
        <mxCell id="k4QhSJhcpzNyjnFm29Ks-66" value="" style="endArrow=none;html=1;rounded=0;entryX=0;entryY=0.5;entryDx=0;entryDy=0;exitX=1;exitY=0.5;exitDx=0;exitDy=0;" edge="1" parent="1" source="k4QhSJhcpzNyjnFm29Ks-32" target="k4QhSJhcpzNyjnFm29Ks-40">
          <mxGeometry relative="1" as="geometry">
            <mxPoint x="340" y="320" as="sourcePoint" />
            <mxPoint x="500" y="320" as="targetPoint" />
            <Array as="points">
              <mxPoint x="310" y="460" />
              <mxPoint x="310" y="350" />
            </Array>
          </mxGeometry>
        </mxCell>
      </root>
    </mxGraphModel>
  </diagram>
</mxfile>
